<?xml version="1.0" encoding="UTF-8"?>
<svg width="230px" height="54px" viewBox="0 0 230 54" version="1.1" xmlns="http://www.w3.org/2000/svg" xmlns:xlink="http://www.w3.org/1999/xlink">
    <!-- Generator: sketchtool 64 (101010) - https://sketch.com -->
    <title>2DA5CB82-6F36-4873-8BA8-96A2FABCCEA0</title>
    <desc>Created with sketchtool.</desc>
    <defs>
        <linearGradient x1="9.76583133%" y1="9.60790923%" x2="88.8554788%" y2="90.2350789%" id="linearGradient-1">
            <stop stop-color="#FC6767" offset="0%"></stop>
            <stop stop-color="#EC008C" offset="100%"></stop>
        </linearGradient>
        <linearGradient x1="49.983928%" y1="99.9768893%" x2="49.983928%" y2="0%" id="linearGradient-2">
            <stop stop-color="#091E72" offset="0%"></stop>
            <stop stop-color="#091E9C" offset="98%"></stop>
        </linearGradient>
        <linearGradient x1="50%" y1="99.962109%" x2="50%" y2="0.0175885428%" id="linearGradient-3">
            <stop stop-color="#091E72" offset="0%"></stop>
            <stop stop-color="#091E9C" offset="98%"></stop>
        </linearGradient>
        <linearGradient x1="50.0578647%" y1="99.9524535%" x2="50.0578647%" y2="0.00169000487%" id="linearGradient-4">
            <stop stop-color="#091E72" offset="0%"></stop>
            <stop stop-color="#091E9C" offset="98%"></stop>
        </linearGradient>
        <linearGradient x1="50.1083032%" y1="100.023121%" x2="50.1083032%" y2="-8.21436689e-15%" id="linearGradient-5">
            <stop stop-color="#091E72" offset="0%"></stop>
            <stop stop-color="#091E9C" offset="98%"></stop>
        </linearGradient>
        <linearGradient x1="49.983928%" y1="99.9768893%" x2="49.983928%" y2="1.99953779%" id="linearGradient-6">
            <stop stop-color="#091E72" offset="0%"></stop>
            <stop stop-color="#091E9C" offset="100%"></stop>
        </linearGradient>
        <linearGradient x1="49.980008%" y1="99.9711787%" x2="49.980008%" y2="0.00213441678%" id="linearGradient-7">
            <stop stop-color="#091E72" offset="0%"></stop>
            <stop stop-color="#091E9C" offset="98%"></stop>
        </linearGradient>
        <linearGradient x1="49.9830451%" y1="99.9719085%" x2="49.9830451%" y2="0.00361448546%" id="linearGradient-8">
            <stop stop-color="#091E72" offset="0%"></stop>
            <stop stop-color="#091E9C" offset="98%"></stop>
        </linearGradient>
    </defs>
    <g id="Page-1" stroke="none" stroke-width="1" fill="none" fill-rule="evenodd">
        <g id="onesoft-meet-the-team" transform="translate(-100.000000, -68.000000)" fill-rule="nonzero">
            <g id="header">
                <g id="Asset-1-Copy" transform="translate(100.000000, 68.000000)">
                    <path d="M44.0496,48.24 C44.8675953,49.0592815 45.1863727,50.252724 44.8858518,51.3707695 C44.5853309,52.4888149 43.711168,53.3616055 42.5926518,53.6603695 C41.4741356,53.9591334 40.2811953,53.6384815 39.4632,52.8192 L26.64,40.0176 L13.8096,52.848 C12.5371359,54.1144994 10.4788994,54.109664 9.21240003,52.8372 C7.94590066,51.5647359 7.95073597,49.5064994 9.2232,48.24 L24.3432,33.12 C24.9509938,32.5110511 25.7760326,32.1688499 26.6364,32.1688499 C27.4967674,32.1688499 28.3218062,32.5110511 28.9296,33.12 L44.0496,48.24 Z M22.3200083,26.8056 C22.3200083,25.94643 21.9780629,25.1225855 21.3696,24.516 L6.2496,9.396 C4.98310061,8.13148884 2.93131116,8.13310061 1.6668,9.3996 C0.402288837,10.6660994 0.403900612,12.7178888 1.6704,13.9824 L14.5008,26.8056 L1.6704,39.636 C0.403900644,40.9005112 0.402288884,42.9523006 1.66680003,44.2188 C2.93131118,45.4852993 4.98310061,45.4869111 6.2496,44.2224 L21.3696,29.1024 C21.9798334,28.4940539 22.3219531,27.6672646 22.3200083,26.8056 Z M39.6,26.8056 L52.4592,13.9824 C53.7256994,12.7159006 53.7256994,10.6624994 52.4592,9.396 C51.1927006,8.12950061 49.1392994,8.12950061 47.8728,9.396 L32.7528,24.516 C32.1438511,25.1237938 31.8016499,25.9488326 31.8016499,26.8092 C31.8016499,27.6695674 32.1438511,28.4946062 32.7528,29.1024 L47.8728,44.2224 C49.1392994,45.4888994 51.1927006,45.4888993 52.4592,44.2224 C53.7256993,42.9559006 53.7256994,40.9024994 52.4592,39.636 L39.6,26.8056 Z M24.48,20.6496 C25.0865631,21.2581129 25.9104104,21.6001363 26.7696,21.6001363 C27.6287896,21.6001363 28.4526369,21.2581129 29.0592,20.6496 L44.1792,5.5296 C45.3687503,4.25299786 45.3336503,2.263638 44.0998062,1.02979383 C42.865962,-0.204050344 40.8766021,-0.239150277 39.6,0.9504 L26.7408,13.7808 L13.9104,0.9504 C12.620142,-0.126474088 10.7206842,-0.0380322315 9.53607372,1.15407577 C8.35146325,2.34618377 8.275007,4.2461618 9.36,5.5296 L24.48,20.6496 Z" id="Shape" fill="url(#linearGradient-1)"></path>
                    <path d="M60.5736,31.14 L60.5736,22.6152 C60.5736,16.4952 63.72,11.3256 71.7768,11.3256 C79.8336,11.3256 82.9728,16.4952 82.9728,22.6152 L82.9728,31.14 C82.9728,37.44 79.2,42.48 71.7768,42.48 C64.3536,42.48 60.5736,37.44 60.5736,31.14 Z M66.6072,22.6152 L66.6072,31.14 C66.6072,34.5888 68.2416,37.0008 71.7768,37.0008 C75.312,37.0008 76.9464,34.5888 76.9464,31.14 L76.9464,22.6152 C76.9464,19.1232 75.564,16.7976 71.7768,16.7976 C67.9896,16.7976 66.6072,19.1232 66.6072,22.6152 L66.6072,22.6152 Z" id="Shape" fill="url(#linearGradient-2)"></path>
                    <path d="M103.68,40.9608 L93.6576,23.5584 L93.6576,39.672 C93.553872,41.2762885 92.2048747,42.5141918 90.5976,42.48 C89.8312431,42.5051988 89.0864756,42.2237549 88.5283113,41.6980263 C87.970147,41.1722977 87.644672,40.4456924 87.624,39.6792 L87.624,14.256 C87.6323628,13.4433272 87.9737879,12.6696759 88.568516,12.1157757 C89.1632442,11.5618755 89.9591844,11.2762417 90.7704,11.3256 C91.9568937,11.3540513 93.0531293,11.9654652 93.7008,12.96 C97.5312,19.5912 99.7344,23.508 103.6944,30.4488 L103.6944,14.1264 C103.801804,12.5249645 105.149735,11.2912104 106.7544,11.3256 C107.520757,11.3004012 108.265524,11.5818451 108.823689,12.1075737 C109.381853,12.6333023 109.707328,13.3599076 109.728,14.1264 L109.728,39.5424 C109.711666,40.3569195 109.365035,41.1298327 108.767654,41.6837681 C108.170273,42.2377035 107.373434,42.5250983 106.56,42.48 C105.409742,42.4733813 104.334934,41.9064202 103.68,40.9608 Z" id="Path" fill="url(#linearGradient-3)"></path>
                    <path d="M130.6152,42.084 L119.2032,42.084 C117.0936,42.084 115.1928,41.364 115.1928,39.024 L115.1928,14.7744 C115.307649,13.0331839 116.767206,11.6876054 118.512,11.7144 L130.1904,11.7144 C131.784232,11.684979 133.114942,12.923367 133.2,14.5152 C133.161203,15.27077 132.820684,15.9791304 132.254846,16.4813449 C131.689009,16.9835593 130.945233,17.2375758 130.1904,17.1864 L121.2264,17.1864 L121.2264,24.12 L129.3696,24.12 C130.933662,24.0666013 132.254125,25.2719634 132.3432,26.8344 C132.322796,27.5972429 131.995909,28.3196943 131.436365,28.8385933 C130.876821,29.3574924 130.131815,29.6290728 129.3696,29.592 L121.2264,29.592 L121.2264,36.612 L130.5864,36.612 C131.630904,36.5046953 132.645368,37.0014484 133.201087,37.8923346 C133.756807,38.7832208 133.756807,39.9127792 133.201087,40.8036654 C132.645368,41.6945516 131.630904,42.1913047 130.5864,42.084 L130.6152,42.084 Z" id="Path" fill="url(#linearGradient-4)"></path>
                    <path d="M148.7088,30.3696 C147.8088,29.9808 146.7288,29.592 145.5624,29.2032 C141.3432,27.9144 136.7784,26.4888 136.7784,20.2464 C136.7784,14.688 140.652,11.3256 146.772,11.3256 C149.3136,11.3256 155.412,11.9736 155.412,15.2064 C155.394794,15.9745254 155.061183,16.7014582 154.490029,17.2153606 C153.918875,17.729263 153.160871,17.9845229 152.3952,17.9208 C151.671794,17.8715089 150.960274,17.7112348 150.2856,17.4456 C149.246617,17.0170017 148.133514,16.7968274 147.0096,16.7976 C144.9,16.7976 142.92,17.5176 142.92,20.0736 C142.830997,21.3247053 143.561936,22.4895473 144.7272,22.9536 C145.720674,23.4417797 146.760175,23.8300853 147.8304,24.1128 C152.0496,25.452 156.6576,26.9136 156.6576,33.0336 C156.6576,39.0168 152.0928,42.4656 145.9296,42.4656 C142.7472,42.4656 136.7136,41.3424 136.7136,38.3328 C136.801463,36.8072348 138.065509,35.6158719 139.5936,35.6184 C140.337812,35.6621447 141.068726,35.8351276 141.7536,36.1296 C143.112994,36.6644695 144.555627,36.9568952 146.016,36.9936 C148.9896,36.9936 150.5016,35.6616 150.5016,33.2928 C150.48,31.356 149.4864,30.7152 148.7088,30.3696 Z" id="Path" fill="url(#linearGradient-5)"></path>
                    <path d="M160.2144,31.14 L160.2144,22.6152 C160.2144,16.4952 163.3536,11.3256 171.4104,11.3256 C179.4672,11.3256 182.6136,16.4952 182.6136,22.6152 L182.6136,31.14 C182.6136,37.44 178.8624,42.48 171.4104,42.48 C163.9584,42.48 160.2144,37.44 160.2144,31.14 Z M166.2408,22.6152 L166.2408,31.14 C166.2408,34.5888 167.8824,37.0008 171.4104,37.0008 C174.9384,37.0008 176.58,34.5888 176.58,31.14 L176.58,22.6152 C176.58,19.1232 175.2048,16.7976 171.4104,16.7976 C167.616,16.7976 166.2408,19.1232 166.2408,22.6152 L166.2408,22.6152 Z" id="Shape" fill="url(#linearGradient-6)"></path>
                    <path d="M193.2984,39.7152 C193.194723,41.2956241 191.865051,42.5142256 190.2816,42.48 C188.693701,42.5333736 187.353909,41.3086946 187.2648,39.7224 L187.2648,14.7312 C187.379649,12.9899839 188.839206,11.6444054 190.584,11.6712 L202.2552,11.6712 C203.8518,11.637845 205.186867,12.877322 205.272,14.472 C205.231339,15.2281978 204.889258,15.9365412 204.322282,16.4385646 C203.755307,16.940588 203.010758,17.194393 202.2552,17.1432 L193.2984,17.1432 L193.2984,24.12 L201.4344,24.12 C202.998462,24.0666013 204.318925,25.2719634 204.408,26.8344 C204.389568,27.5979131 204.063278,28.3215526 203.503279,28.8408731 C202.943281,29.3601936 202.197135,29.6310894 201.4344,29.592 L193.2984,29.592 L193.2984,39.7152 Z" id="Path" fill="url(#linearGradient-7)"></path>
                    <path d="M215.8704,17.1864 L211.2984,17.1864 C209.720585,17.2599943 208.377908,16.0490149 208.2888,14.472 C208.464192,12.9310196 209.747994,11.7547123 211.2984,11.7144 L226.4616,11.7144 C228.053464,11.6713316 229.399391,12.8842499 229.5216,14.472 C229.391762,16.0495948 228.043419,17.2456536 226.4616,17.1864 L221.8968,17.1864 L221.8968,39.7152 C221.796723,41.297348 220.464855,42.5179615 218.88,42.48 C217.294859,42.5293776 215.959473,41.305807 215.8704,39.7224 L215.8704,17.1864 Z" id="Path" fill="url(#linearGradient-8)"></path>
                </g>
            </g>
        </g>
    </g>
</svg>
